<?xml version="1.0" encoding="UTF-8"?>
<svg id="Camada_2" data-name="Camada 2" xmlns="http://www.w3.org/2000/svg" viewBox="0 0 244.98 320">
  <defs>
    <style>
      .cls-1 {
        stroke-width: 0px;
      }
    </style>
  </defs>
  <g id="Layer_1" data-name="Layer 1">
    <path class="cls-1" d="m111.41,115.58c-6.67-5.76-13.56-10.04-20.95-12.82-7.39-2.79-15.2-4.06-23.58-4.06-2.52,0-5.09.11-7.73.33-12.49,1.02-22.74,5.13-30.78,11.03-12.09,8.87-19.11,21.43-23.16,33.18C1.16,155.02.01,166.07,0,172.89c0,1.24.04,2.35.12,3.35.08,1,.18,1.85.4,2.79.75,3.13,3.89,5.06,7.02,4.31,3.13-.75,5.06-3.89,4.31-7.02h0s-.02-.08-.04-.25c-.08-.54-.16-1.7-.16-3.18-.03-7.38,1.89-22.81,8.97-36.04,3.53-6.64,8.29-12.75,14.64-17.4,6.36-4.64,14.33-7.94,24.85-8.82,2.35-.19,4.6-.29,6.77-.29,7.23,0,13.52,1.07,19.47,3.31,5.95,2.25,11.61,5.7,17.46,10.74,6.05,5.22,10.77,11.83,14.24,19.27,4.88,10.47,7.21,21.13,7.21,31.71,0,13.68-3.9,27.27-11.54,40.09-5.13,8.67-13.79,17.16-21.8,26.6-4,4.74-7.82,9.75-10.87,15.33-3.04,5.57-5.29,11.75-5.94,18.59-.7,7.55-1.52,15.31-3.87,20.93-1.16,2.83-2.62,5.08-4.5,6.81-1.9,1.72-4.26,3.03-7.79,3.8-2.52.54-5.16.83-7.78.83-3.89,0-7.7-.65-10.99-1.97-3.3-1.33-6.09-3.28-8.26-6.02-4.72-5.9-6.63-14.73-6.6-23.67,0-2.47.14-4.93.37-7.31.32-3.2-2.01-6.05-5.21-6.38-3.2-.32-6.05,2.01-6.38,5.21-.28,2.72-.44,5.57-.44,8.47.02,10.4,1.99,21.81,9.11,30.89,3.55,4.5,8.15,7.65,13.06,9.61,4.92,1.97,10.17,2.81,15.32,2.81,3.47,0,6.9-.38,10.21-1.08,5.32-1.12,9.8-3.45,13.22-6.6,5.17-4.75,7.83-10.94,9.41-17.08,1.58-6.17,2.14-12.49,2.69-18.14.48-4.99,2.1-9.59,4.57-14.12,3.69-6.8,9.37-13.36,15.38-20.06,6-6.72,12.33-13.57,17.06-21.48,8.61-14.42,13.19-30.14,13.18-46.05,0-12.3-2.74-24.7-8.3-36.63-4.06-8.7-9.72-16.72-17.19-23.16Zm-28.93,99.79c-6.69,7.2-14.14,14.94-18.4,25.65-1.18,2.99.29,6.38,3.28,7.56.7.28,1.43.41,2.14.41,2.32,0,4.51-1.4,5.42-3.69,3.14-8.02,9.3-14.75,16.08-21.97,6.71-7.22,14.06-14.94,18.06-25.64,2.64-7.08,4.08-15.53,4.08-24.23,0-8.23-1.29-16.67-4.38-24.3-3.08-7.59-8.1-14.48-15.59-18.75-7.86-4.48-16.2-6.94-24.49-6.94-6.77,0-13.48,1.67-19.6,5.08-6.13,3.41-11.66,8.51-16.3,15.2-6.66,9.63-11.08,21.47-11.42,33.19-.01.41-.02.82-.02,1.21,0,3.47.43,6.76,1.38,9.95.95,3.2,2.38,6.24,4.23,9.38,1.63,2.77,5.2,3.7,7.97,2.07,2.77-1.63,3.7-5.2,2.07-7.97-1.52-2.6-2.49-4.74-3.1-6.8-.13-.45-.25-.9-.35-1.35,6.64.53,12.64,2.71,16.93,5.99,2.49,1.9,4.43,4.14,5.76,6.67,1.32,2.54,2.07,5.38,2.08,8.71,0,2.33-.38,4.9-1.25,7.73l-.02.07c-1.12,3.74-2.75,6.25-4.77,8.52-3.02,3.4-7.23,5.99-11.42,9.91-2.07,1.97-4.12,4.37-5.61,7.43-1.49,3.05-2.33,6.69-2.32,10.75,0,1.04.05,2.12.16,3.25.29,3.01,2.83,5.27,5.79,5.27.19,0,.37,0,.57-.03,3.2-.31,5.55-3.16,5.24-6.36-.07-.76-.11-1.47-.11-2.13.04-3.42.77-5.24,1.96-7.04,1.75-2.69,5.45-5.24,9.92-8.95,4.39-3.68,9.34-8.99,11.75-17.24,1.19-3.84,1.77-7.59,1.77-11.17,0-5.14-1.22-9.95-3.41-14.12-3.29-6.28-8.67-11.06-14.98-14.22-5.43-2.72-11.58-4.3-18.02-4.7.56-3.4,1.54-6.86,2.86-10.21.22-.11.43-.23.64-.37h0c3.57-2.37,7.03-3.32,10.28-3.33,4.09,0,7.98,1.54,11.22,4.39,3.23,2.86,5.75,7.03,6.82,12.23.57,2.75,2.99,4.65,5.7,4.65.39,0,.78-.04,1.18-.12,3.15-.65,5.18-3.73,4.53-6.88-1.56-7.55-5.32-14.01-10.52-18.61-5.18-4.59-11.85-7.32-18.93-7.32-.58,0-1.16.02-1.75.06,2.89-3.28,5.97-5.76,9.16-7.53,4.42-2.45,9.06-3.61,13.94-3.61,5.96,0,12.33,1.77,18.72,5.41,4.68,2.66,8.17,7.15,10.57,13.02,2.38,5.83,3.53,12.91,3.53,19.9,0,7.38-1.28,14.67-3.35,20.17-2.89,7.89-8.89,14.55-15.66,21.75Zm40.38-127.73c-10.42-5.46-18.68-6.98-19.08-7.06-3.16-.58-6.2,1.52-6.77,4.68-.58,3.16,1.51,6.19,4.67,6.77h0s0,0,0,0h0s0,0,0,0c.49.08,13.35,2.72,25.66,12.24,6.22,4.79,12.31,11.27,16.9,20.11,4.58,8.84,7.7,20.09,7.71,34.69,0,6.27-.58,13.16-1.89,20.72-.55,3.17,1.58,6.19,4.75,6.73.33.06.67.09,1,.09,2.78,0,5.24-2,5.73-4.83,1.41-8.16,2.06-15.72,2.06-22.71,0-16.53-3.65-29.93-9.28-40.55-8.43-15.95-21.08-25.44-31.47-30.89Zm16.58-25.01c-13.13-6.88-23.56-8.8-23.95-8.88-3.16-.58-6.2,1.52-6.78,4.68-.58,3.17,1.52,6.2,4.68,6.77.55.08,17.36,3.47,33.55,15.99,8.12,6.25,16.1,14.73,22.09,26.29,5.99,11.56,10.04,26.23,10.05,45.16,0,8.13-.75,17.04-2.45,26.81-.55,3.17,1.58,6.18,4.75,6.73.34.06.67.08,1,.08,2.78,0,5.24-2,5.73-4.83,1.79-10.37,2.61-19.94,2.61-28.8,0-20.92-4.62-37.79-11.69-51.15-10.61-20.06-26.5-31.99-39.6-38.86Zm16.58-25.01c-15.84-8.3-28.44-10.62-28.83-10.7-3.17-.58-6.2,1.52-6.78,4.68-.58,3.16,1.52,6.2,4.68,6.77h.01c.78.13,21.44,4.29,41.43,19.73,10.01,7.72,19.87,18.2,27.28,32.46,7.4,14.27,12.38,32.38,12.39,55.62,0,9.99-.93,20.92-3,32.89-.55,3.17,1.58,6.19,4.74,6.73.33.06.67.09,1,.09,2.78,0,5.24-2,5.73-4.83,2.18-12.57,3.17-24.17,3.17-34.88,0-25.31-5.58-45.66-14.1-61.75-12.78-24.16-31.93-38.55-47.74-46.83Zm72.46,29.79c-14.94-28.26-37.35-45.1-55.87-54.8C154.06,2.89,139.29.17,138.89.1c-3.16-.58-6.2,1.52-6.78,4.68-.58,3.16,1.52,6.2,4.68,6.77h0,.02c1.01.18,25.53,5.11,49.31,23.47,11.91,9.18,23.65,21.66,32.47,38.64,8.8,16.99,14.72,38.52,14.73,66.1,0,11.85-1.1,24.81-3.55,38.98-.55,3.17,1.57,6.18,4.75,6.73.34.06.67.09,1,.09,2.78,0,5.24-2,5.73-4.83,2.56-14.77,3.72-28.4,3.72-40.97,0-29.71-6.55-53.52-16.5-72.35Z"/>
  </g>
</svg>